<svg xmlns="http://www.w3.org/2000/svg" width="2170" height="725" viewBox="0 0 2170 725" role="img" aria-label="SXPaw logo, black wordmark with orange paw dots on white background">
  <rect width="100%" height="100%" fill="#FFFFFF"/>
  <path d="M 412.36 480 C 483.315 480 523.82 448.764 523.82 393.989 C 523.82 352.191 498.371 328.989 438.371 317.978 L 417.303 314.101 C 390.056 309.157 378.315 302.528 378.315 290.056 C 378.315 276.854 392.697 267.584 413.258 267.584 C 435 267.584 449.607 278.82 451.348 297.079 L 518.427 297.079 C 516.629 242.303 477.135 210 411.854 210 C 348.258 210 304.944 243.876 304.944 293.539 C 304.944 332.36 332.303 359.213 382.865 368.876 L 408.876 373.764 C 438.371 379.382 451.685 386.798 451.685 399.438 C 451.685 413.09 436.236 422.416 413.258 422.416 C 386.742 422.416 370.056 409.944 368.989 388.708 L 300 388.708 C 300 447.528 339.831 480 412.36 480 Z M 535.077 475.787 L 617.605 475.787 L 647.605 430.843 C 654.796 420.112 661.482 409.438 668.167 398.708 C 674.853 409.438 681.482 420.112 688.336 430.843 L 716.763 475.787 L 801.594 475.787 L 709.235 340.056 L 791.426 214.213 L 711.145 214.213 L 689.909 248.258 C 682.718 259.663 675.864 271.236 669.235 282.64 C 662.549 271.236 655.864 259.663 648.841 248.258 L 627.942 214.213 L 545.639 214.213 L 629.347 342.022 L 535.077 475.787 Z M 815.625 475.787 L 888.659 475.787 L 888.659 396.798 L 926.749 396.798 C 989.277 396.798 1028.434 361.517 1028.434 305.506 C 1028.434 249.494 989.277 214.213 926.749 214.213 L 815.625 214.213 L 815.625 475.787 Z M 888.659 336.742 L 888.659 274.213 L 921.299 274.213 C 943.265 274.213 957.142 286.348 957.142 305.506 C 957.142 324.607 943.265 336.742 921.299 336.742 L 888.659 336.742 Z M 1106.517 479.101 C 1130.225 479.101 1147.64 471.91 1159.888 449.775 L 1160.618 449.775 L 1160.618 475.787 L 1229.101 475.787 L 1229.101 351.854 C 1229.101 309.719 1198.539 286.18 1141.292 286.18 C 1084.438 286.18 1054.045 309.719 1051.067 351.854 L 1115.337 351.854 C 1116.517 340.955 1124.607 335 1138.483 335 C 1151.292 335 1159.551 340.225 1159.551 348.315 L 1159.551 349.045 C 1159.551 359.213 1147.247 363.09 1114.607 365.169 C 1074.607 367.809 1043.315 383.09 1043.315 424.494 C 1043.315 461.404 1069.326 479.101 1106.517 479.101 Z M 1129.382 435.393 C 1117.416 435.393 1108.989 429.775 1108.989 420.281 C 1108.989 410.843 1117.753 404.494 1132.191 402.022 C 1145.169 399.775 1153.258 397.809 1160.281 395.393 L 1160.281 410.112 C 1160.281 426.629 1144.438 435.393 1129.382 435.393 Z M 1300.351 475.787 L 1372.711 475.787 L 1391.812 411.18 C 1395.183 399.607 1398.329 387.303 1401.475 374.831 C 1404.621 387.303 1407.823 399.607 1411.138 411.18 L 1430.295 475.787 L 1502.598 475.787 L 1559.508 290.393 L 1484.34 290.393 L 1473.441 340.955 C 1468.89 362.191 1464.846 385.169 1460.632 408.034 C 1455.351 385.169 1450.126 362.191 1444.846 340.955 L 1432.037 290.393 L 1370.913 290.393 L 1358.104 340.955 C 1352.823 362.022 1347.598 385 1342.317 407.64 C 1337.935 385 1333.553 362.022 1328.778 340.955 L 1317.205 290.393 L 1243.441 290.393 L 1300.351 475.787 Z" fill="#000000"/>
  <g fill="#FF8A1F">
    <circle cx="1625" cy="222" r="36"/>
    <circle cx="1725" cy="202" r="38"/>
    <circle cx="1814" cy="236" r="36"/>
  </g>
</svg>
